<svg id="blue_box" xmlns="http://www.w3.org/2000/svg" xmlns:xlink="http://www.w3.org/1999/xlink" width="223.552" height="232.841" viewBox="0 0 223.552 232.841">
  <defs>
    <linearGradient id="linear-gradient" y1="0.5" x2="1" y2="0.5" gradientUnits="objectBoundingBox">
      <stop offset="0" stop-color="gray" stop-opacity="0.251"/>
      <stop offset="0.54" stop-color="gray" stop-opacity="0.122"/>
      <stop offset="1" stop-color="gray" stop-opacity="0.102"/>
    </linearGradient>
    <linearGradient id="linear-gradient-8" x1="0.5" y1="1" x2="0.5" y2="0" xlink:href="#linear-gradient"/>
    <linearGradient id="linear-gradient-10" x1="0" y1="0.5" y2="0.5" xlink:href="#linear-gradient"/>
    <linearGradient id="linear-gradient-21" x1="0.5" y1="1" x2="0.5" y2="0" xlink:href="#linear-gradient"/>
    <linearGradient id="linear-gradient-26" x1="0" y1="0.5" y2="0.5" xlink:href="#linear-gradient"/>
    <linearGradient id="linear-gradient-44" x1="0" y1="0.5" y2="0.5" xlink:href="#linear-gradient"/>
    <linearGradient id="linear-gradient-49" x1="0.5" y1="1" x2="0.5" y2="0" xlink:href="#linear-gradient"/>
    <linearGradient id="linear-gradient-50" x1="0" y1="0.5" y2="0.5" xlink:href="#linear-gradient"/>
    <linearGradient id="linear-gradient-51" x1="0.5" y1="0.999" x2="0.5" y2="-0.002" xlink:href="#linear-gradient"/>
    <linearGradient id="linear-gradient-52" x1="0" y1="0.5" y2="0.5" xlink:href="#linear-gradient"/>
    <linearGradient id="linear-gradient-53" x1="0.001" y1="0.501" y2="0.501" xlink:href="#linear-gradient"/>
    <linearGradient id="linear-gradient-58" x1="0" y1="0.5" y2="0.5" xlink:href="#linear-gradient"/>
    <linearGradient id="linear-gradient-60" x1="0" y1="0.5" y2="0.5" xlink:href="#linear-gradient"/>
    <linearGradient id="linear-gradient-61" x1="0" y1="0.498" y2="0.498" xlink:href="#linear-gradient"/>
    <linearGradient id="linear-gradient-62" x1="0" y1="0.498" y2="0.498" xlink:href="#linear-gradient"/>
    <linearGradient id="linear-gradient-64" x1="0" y1="0.502" y2="0.502" xlink:href="#linear-gradient"/>
    <linearGradient id="linear-gradient-65" x1="0" y1="0.502" y2="0.502" xlink:href="#linear-gradient"/>
    <linearGradient id="linear-gradient-67" x1="0" y1="0.5" y2="0.5" xlink:href="#linear-gradient"/>
    <linearGradient id="linear-gradient-70" x1="0" y1="0.499" y2="0.499" xlink:href="#linear-gradient"/>
    <linearGradient id="linear-gradient-71" x1="0" y1="0.501" y2="0.501" xlink:href="#linear-gradient"/>
    <linearGradient id="linear-gradient-86" x1="0.5" y1="1.002" x2="0.5" y2="0.003" xlink:href="#linear-gradient"/>
    <linearGradient id="linear-gradient-88" x1="0.5" y1="1" x2="0.5" y2="0" xlink:href="#linear-gradient"/>
  </defs>
  <g id="Group_25" data-name="Group 25" transform="translate(0 39.195)" opacity="0.7">
    <path id="Path_27" data-name="Path 27" d="M440.115,325.889,366.37,308.13v139l73.745-19.3Z" transform="translate(-254.786 -253.479)" fill="url(#linear-gradient)"/>
    <g id="Group_5" data-name="Group 5" transform="translate(111.584 54.651)" opacity="0.1">
      <path id="Path_28" data-name="Path 28" d="M440.115,325.889,366.37,308.13v139l73.745-19.3Z" transform="translate(-366.37 -308.13)" fill="url(#linear-gradient)"/>
    </g>
    <path id="Path_29" data-name="Path 29" d="M124.23,325.889l73.748-17.759v139l-73.748-18.92Z" transform="translate(-86.394 -253.479)" fill="url(#linear-gradient)"/>
    <g id="Group_6" data-name="Group 6" transform="translate(37.836 54.651)" opacity="0.17">
      <path id="Path_30" data-name="Path 30" d="M124.23,325.889l73.748-17.759v139l-73.748-18.92Z" transform="translate(-124.23 -308.13)" fill="url(#linear-gradient)"/>
    </g>
    <path id="Path_31" data-name="Path 31" d="M366.37,235.84l38.223-31.66,73.745,18.92-38.223,30.5Z" transform="translate(-254.786 -181.188)" fill="url(#linear-gradient)"/>
    <path id="Path_32" data-name="Path 32" d="M0,223.483,37.836,253.6l73.748-17.759L74.132,204.18Z" transform="translate(0 -181.188)" fill="url(#linear-gradient)"/>
    <g id="Group_7" data-name="Group 7" transform="translate(0 22.992)" opacity="0.05">
      <path id="Path_33" data-name="Path 33" d="M0,223.483,37.836,253.6l73.748-17.759L74.132,204.18Z" transform="translate(0 -204.18)" fill="url(#linear-gradient)"/>
    </g>
    <g id="Group_8" data-name="Group 8" transform="translate(56.887 38.586)" opacity="0.5">
      <rect id="Rectangle_7" data-name="Rectangle 7" width="54.737" height="50.503" rx="4.5" fill="url(#linear-gradient-8)"/>
    </g>
    <rect id="Rectangle_8" data-name="Rectangle 8" width="53.476" height="49.279" rx="4.5" transform="translate(57.554 38.975)" fill="url(#linear-gradient)"/>
    <rect id="Rectangle_9" data-name="Rectangle 9" width="9.018" height="8.117" rx="4.058" transform="translate(61.675 47.092)" fill="url(#linear-gradient-10)"/>
    <rect id="Rectangle_10" data-name="Rectangle 10" width="35.851" height="0.902" rx="0.451" transform="translate(73.398 47.092)" fill="url(#linear-gradient)"/>
    <rect id="Rectangle_11" data-name="Rectangle 11" width="35.851" height="0.902" rx="0.451" transform="translate(73.398 49.797)" fill="url(#linear-gradient)"/>
    <rect id="Rectangle_12" data-name="Rectangle 12" width="48.475" height="0.902" rx="0.451" transform="translate(60.773 59.619)" fill="url(#linear-gradient)"/>
    <rect id="Rectangle_13" data-name="Rectangle 13" width="48.475" height="0.902" rx="0.451" transform="translate(60.773 62.323)" fill="url(#linear-gradient)"/>
    <rect id="Rectangle_14" data-name="Rectangle 14" width="48.475" height="0.902" rx="0.451" transform="translate(60.773 65.93)" fill="url(#linear-gradient)"/>
    <rect id="Rectangle_15" data-name="Rectangle 15" width="27.956" height="0.902" rx="0.451" transform="translate(60.773 68.637)" fill="url(#linear-gradient)"/>
    <rect id="Rectangle_16" data-name="Rectangle 16" width="48.475" height="0.902" rx="0.451" transform="translate(60.773 72.234)" fill="url(#linear-gradient)"/>
    <rect id="Rectangle_17" data-name="Rectangle 17" width="48.475" height="0.902" rx="0.451" transform="translate(60.773 74.939)" fill="url(#linear-gradient)"/>
    <rect id="Rectangle_18" data-name="Rectangle 18" width="48.475" height="0.902" rx="0.451" transform="translate(60.773 78.548)" fill="url(#linear-gradient)"/>
    <rect id="Rectangle_19" data-name="Rectangle 19" width="27.956" height="0.902" rx="0.451" transform="translate(60.773 81.252)" fill="url(#linear-gradient)"/>
    <g id="Group_9" data-name="Group 9" transform="translate(65.147 50.253)" opacity="0.5">
      <rect id="Rectangle_20" data-name="Rectangle 20" width="54.737" height="50.503" rx="4.5" fill="url(#linear-gradient-21)"/>
    </g>
    <rect id="Rectangle_21" data-name="Rectangle 21" width="53.476" height="49.279" rx="4.5" transform="translate(65.814 50.646)" fill="url(#linear-gradient)"/>
    <rect id="Rectangle_22" data-name="Rectangle 22" width="9.018" height="8.117" rx="4.058" transform="translate(69.935 58.763)" fill="url(#linear-gradient-10)"/>
    <rect id="Rectangle_23" data-name="Rectangle 23" width="35.851" height="0.902" rx="0.451" transform="translate(81.66 58.763)" fill="url(#linear-gradient)"/>
    <rect id="Rectangle_24" data-name="Rectangle 24" width="35.851" height="0.902" rx="0.451" transform="translate(81.66 61.468)" fill="url(#linear-gradient)"/>
    <rect id="Rectangle_25" data-name="Rectangle 25" width="48.475" height="0.902" rx="0.451" transform="translate(69.033 71.287)" fill="url(#linear-gradient-26)"/>
    <rect id="Rectangle_26" data-name="Rectangle 26" width="48.475" height="0.902" rx="0.451" transform="translate(69.033 73.994)" fill="url(#linear-gradient-26)"/>
    <rect id="Rectangle_27" data-name="Rectangle 27" width="48.475" height="0.902" rx="0.451" transform="translate(69.033 77.601)" fill="url(#linear-gradient-26)"/>
    <rect id="Rectangle_28" data-name="Rectangle 28" width="27.956" height="0.902" rx="0.451" transform="translate(69.033 80.305)" fill="url(#linear-gradient)"/>
    <rect id="Rectangle_29" data-name="Rectangle 29" width="48.475" height="0.902" rx="0.451" transform="translate(69.033 83.905)" fill="url(#linear-gradient-26)"/>
    <rect id="Rectangle_30" data-name="Rectangle 30" width="48.475" height="0.902" rx="0.451" transform="translate(69.033 86.61)" fill="url(#linear-gradient-26)"/>
    <rect id="Rectangle_31" data-name="Rectangle 31" width="48.475" height="0.902" rx="0.451" transform="translate(69.033 90.219)" fill="url(#linear-gradient-26)"/>
    <rect id="Rectangle_32" data-name="Rectangle 32" width="27.956" height="0.902" rx="0.451" transform="translate(69.033 92.923)" fill="url(#linear-gradient)"/>
    <g id="Group_10" data-name="Group 10" transform="translate(96.977 56.789)" opacity="0.5">
      <rect id="Rectangle_33" data-name="Rectangle 33" width="47.427" height="55.724" fill="url(#linear-gradient-21)"/>
    </g>
    <rect id="Rectangle_34" data-name="Rectangle 34" width="44.96" height="53.595" transform="translate(98.436 57.688)" fill="url(#linear-gradient)"/>
    <g id="Group_11" data-name="Group 11" transform="translate(115.038 64.864)" opacity="0.5">
      <path id="Path_34" data-name="Path 34" d="M619.037,410.756V409.41h-4.888v1.346H610.71v6.612h11.756v-6.612Zm-4.279-.862h3.655v.856h-3.655Z" transform="translate(-610.71 -409.41)" fill="url(#linear-gradient-21)"/>
    </g>
    <rect id="Rectangle_35" data-name="Rectangle 35" width="10.763" height="6.055" transform="translate(115.534 66.432)" fill="url(#linear-gradient)"/>
    <path id="Path_35" data-name="Path 35" d="M389.65,342.76v1.572h.56v-1.121h3.362v1.121h.56V342.76Z" transform="translate(-270.976 -277.561)" fill="url(#linear-gradient)"/>
    <rect id="Rectangle_36" data-name="Rectangle 36" width="31.617" height="1.346" transform="translate(105.164 81.201)" fill="url(#linear-gradient)"/>
    <rect id="Rectangle_37" data-name="Rectangle 37" width="31.617" height="1.346" transform="translate(105.164 90.057)" fill="url(#linear-gradient)"/>
    <rect id="Rectangle_38" data-name="Rectangle 38" width="31.617" height="1.346" transform="translate(105.164 92.412)" fill="url(#linear-gradient)"/>
    <rect id="Rectangle_39" data-name="Rectangle 39" width="13.343" height="1.346" transform="translate(105.164 87.703)" fill="url(#linear-gradient)"/>
    <g id="Group_12" data-name="Group 12" transform="translate(126.803 87.703)" opacity="0.6">
      <rect id="Rectangle_40" data-name="Rectangle 40" width="9.978" height="1.346" transform="translate(0 0)" fill="url(#linear-gradient)"/>
    </g>
    <rect id="Rectangle_41" data-name="Rectangle 41" width="9.978" height="1.346" transform="translate(116.262 97.906)" fill="url(#linear-gradient-44)"/>
    <path id="Path_36" data-name="Path 36" d="M124.23,366.44V468.756l73.748,18.92V386.133Z" transform="translate(-86.394 -294.029)" fill="url(#linear-gradient)"/>
    <path id="Path_37" data-name="Path 37" d="M440.115,468.372l-73.745,19.3V386.133l73.745-19.693Z" transform="translate(-254.786 -294.029)" fill="url(#linear-gradient)"/>
    <g id="Group_13" data-name="Group 13" transform="translate(111.584 72.411)" opacity="0.07">
      <path id="Path_38" data-name="Path 38" d="M440.115,468.372l-73.745,19.3V386.133l73.745-19.693Z" transform="translate(-366.37 -366.44)" fill="url(#linear-gradient)"/>
    </g>
    <g id="Group_14" data-name="Group 14" transform="translate(155.984 132.258)" opacity="0.07">
      <path id="Path_39" data-name="Path 39" d="M512.15,571.048v33.591l29.345-8.108V562.94Z" transform="translate(-512.15 -562.94)" fill="url(#linear-gradient)"/>
    </g>
    <rect id="Rectangle_42" data-name="Rectangle 42" width="21.749" height="20.896" transform="translate(146.734 63.877)" fill="url(#linear-gradient-49)"/>
    <rect id="Rectangle_43" data-name="Rectangle 43" width="21.067" height="19.958" transform="translate(147.075 64.388)" fill="url(#linear-gradient-50)"/>
    <g id="Group_15" data-name="Group 15" transform="translate(153.136 66.871)" opacity="0.5">
      <path id="Path_40" data-name="Path 40" d="M742.135,417.017V416H738.41v1.023H735.8v5.031h8.945v-5.038Zm-3.259-.652h2.8v.652h-2.8Z" transform="translate(-735.8 -416)" fill="url(#linear-gradient-51)"/>
    </g>
    <g id="Group_16" data-name="Group 16" transform="translate(153.514 68.058)" opacity="0.6">
      <rect id="Rectangle_44" data-name="Rectangle 44" width="8.187" height="4.605" fill="url(#linear-gradient-52)"/>
    </g>
    <g id="Group_17" data-name="Group 17" transform="translate(155.902 67.117)" opacity="0.6">
      <path id="Path_41" data-name="Path 41" d="M511.88,349.06v1.2h.429V349.4h2.558v.853h.426v-1.2Z" transform="translate(-511.88 -349.06)" fill="url(#linear-gradient-53)"/>
    </g>
    <g id="Group_18" data-name="Group 18" transform="translate(153.983 76.245)" opacity="0.6">
      <rect id="Rectangle_45" data-name="Rectangle 45" width="7.59" height="1.023" fill="url(#linear-gradient-52)"/>
    </g>
    <rect id="Rectangle_46" data-name="Rectangle 46" width="12.965" height="1.023" transform="translate(151.126 78.121)" fill="url(#linear-gradient)"/>
    <g id="Group_19" data-name="Group 19" transform="translate(95.174)" opacity="0.5">
      <rect id="Rectangle_47" data-name="Rectangle 47" width="28.179" height="23.147" fill="url(#linear-gradient-49)"/>
    </g>
    <rect id="Rectangle_48" data-name="Rectangle 48" width="27.469" height="22.325" transform="translate(95.503 0.439)" fill="url(#linear-gradient)"/>
    <rect id="Rectangle_49" data-name="Rectangle 49" width="27.469" height="4.98" transform="translate(95.503 0.439)" fill="url(#linear-gradient-58)"/>
    <g id="Group_20" data-name="Group 20" transform="translate(95.503 0.439)" opacity="0.1">
      <rect id="Rectangle_50" data-name="Rectangle 50" width="27.469" height="4.98" fill="url(#linear-gradient-58)"/>
    </g>
    <rect id="Rectangle_51" data-name="Rectangle 51" width="23.092" height="2.899" transform="translate(97.693 7.224)" fill="url(#linear-gradient-60)"/>
    <rect id="Rectangle_52" data-name="Rectangle 52" width="16.855" height="0.984" transform="translate(97.693 12.314)" fill="url(#linear-gradient-61)"/>
    <rect id="Rectangle_53" data-name="Rectangle 53" width="10.943" height="0.984" transform="translate(97.693 14.01)" fill="url(#linear-gradient-62)"/>
    <rect id="Rectangle_54" data-name="Rectangle 54" width="14.446" height="0.984" transform="translate(97.693 15.706)" fill="url(#linear-gradient-62)"/>
    <rect id="Rectangle_55" data-name="Rectangle 55" width="16.855" height="0.984" transform="translate(97.693 17.4)" fill="url(#linear-gradient-64)"/>
    <rect id="Rectangle_56" data-name="Rectangle 56" width="5.634" height="0.984" transform="translate(97.693 19.096)" fill="url(#linear-gradient-65)"/>
    <g id="Group_21" data-name="Group 21" transform="translate(136.604 17.382)" opacity="0.5">
      <rect id="Rectangle_57" data-name="Rectangle 57" width="34.928" height="28.687" fill="url(#linear-gradient-21)"/>
    </g>
    <rect id="Rectangle_58" data-name="Rectangle 58" width="34.048" height="27.67" transform="translate(137.012 17.924)" fill="url(#linear-gradient-67)"/>
    <rect id="Rectangle_59" data-name="Rectangle 59" width="34.048" height="6.171" transform="translate(137.012 17.924)" fill="url(#linear-gradient-60)"/>
    <rect id="Rectangle_60" data-name="Rectangle 60" width="28.62" height="3.594" transform="translate(139.723 26.333)" fill="url(#linear-gradient)"/>
    <rect id="Rectangle_61" data-name="Rectangle 61" width="20.89" height="1.221" transform="translate(139.723 32.64)" fill="url(#linear-gradient-70)"/>
    <rect id="Rectangle_62" data-name="Rectangle 62" width="13.565" height="1.221" transform="translate(139.723 34.742)" fill="url(#linear-gradient-71)"/>
    <rect id="Rectangle_63" data-name="Rectangle 63" width="17.905" height="1.221" transform="translate(139.723 36.846)" fill="url(#linear-gradient-70)"/>
    <rect id="Rectangle_64" data-name="Rectangle 64" width="20.89" height="1.221" transform="translate(139.723 38.948)" fill="url(#linear-gradient-70)"/>
    <rect id="Rectangle_65" data-name="Rectangle 65" width="6.987" height="1.221" transform="translate(139.723 41.049)" fill="url(#linear-gradient-71)"/>
    <rect id="Rectangle_66" data-name="Rectangle 66" width="8.138" height="1.084" transform="translate(141.215 27.554)" fill="url(#linear-gradient)"/>
    <g id="Group_22" data-name="Group 22" transform="translate(36.874 73.763)" opacity="0.1">
      <path id="Path_42" data-name="Path 42" d="M121.07,422.617l41.311,10.425,33.2-27.027v-16.6L121.841,370.88Z" transform="translate(-121.07 -370.88)" fill="url(#linear-gradient)"/>
    </g>
    <g id="Group_23" data-name="Group 23" transform="translate(111.389 73.763)" opacity="0.1">
      <path id="Path_43" data-name="Path 43" d="M440.248,422.617l-41.315,10.425-33.2-27.027v-16.6l73.745-18.533Z" transform="translate(-365.73 -370.88)" fill="url(#linear-gradient)"/>
    </g>
    <path id="Path_44" data-name="Path 44" d="M37.836,366.44,0,397.716l73.745,18.533,37.839-30.116Z" transform="translate(0 -294.029)" fill="url(#linear-gradient)"/>
    <path id="Path_45" data-name="Path 45" d="M440.115,366.44l38.223,31.276L404.98,416.249l-38.61-30.116Z" transform="translate(-254.786 -294.029)" fill="url(#linear-gradient)"/>
    <g id="Group_24" data-name="Group 24" transform="translate(111.584 72.411)" opacity="0.07">
      <path id="Path_46" data-name="Path 46" d="M440.115,366.44l38.223,31.276L404.98,416.249l-38.61-30.116Z" transform="translate(-366.37 -366.44)" fill="url(#linear-gradient)"/>
    </g>
  </g>
  <path id="Path_47" data-name="Path 47" d="M441.994,323.15,368.88,305.54V443.347l73.114-19.139Z" transform="translate(-256.531 -212.483)" fill="#348fd9"/>
  <path id="Path_48" data-name="Path 48" d="M441.994,323.15,368.88,305.54V443.347l73.114-19.139Z" transform="translate(-256.531 -212.483)" opacity="0.1"/>
  <path id="Path_49" data-name="Path 49" d="M128.83,323.15l73.111-17.61V443.347L128.83,424.589Z" transform="translate(-89.593 -212.483)" fill="#348fd9"/>
  <path id="Path_50" data-name="Path 50" d="M128.83,321.15l73.111-17.61V441.956L128.83,423.2Z" transform="translate(-89.593 -211.092)" opacity="0.17"/>
  <path id="Path_51" data-name="Path 51" d="M366.88,234.478l38.506-32L478.5,221.238l-38.506,30.85Z" transform="translate(-255.141 -140.811)" fill="#368dd4"/>
  <path id="Path_52" data-name="Path 52" d="M7.66,223.619l37.513,29.86,73.111-17.61L81.155,204.48Z" transform="translate(-5.327 -142.202)" fill="#348fd9"/>
  <path id="Path_53" data-name="Path 53" d="M5.66,221.619l38.427,30.469,73.111-17.61-38.043-32Z" transform="translate(-3.936 -140.811)" opacity="0.05"/>
  <g id="Group_26" data-name="Group 26" transform="translate(58.12 77.128)" opacity="0.5">
    <rect id="Rectangle_67" data-name="Rectangle 67" width="54.268" height="50.071" rx="4.5" fill="url(#linear-gradient-21)"/>
  </g>
  <rect id="Rectangle_68" data-name="Rectangle 68" width="53.016" height="48.856" rx="4.5" transform="translate(58.784 77.518)" fill="#f5f5f5"/>
  <rect id="Rectangle_69" data-name="Rectangle 69" width="8.942" height="8.047" rx="4.023" transform="translate(62.869 85.565)" fill="#6c63ff"/>
  <rect id="Rectangle_70" data-name="Rectangle 70" width="35.543" height="0.895" rx="0.448" transform="translate(74.494 85.565)" fill="#e0e0e0"/>
  <rect id="Rectangle_71" data-name="Rectangle 71" width="35.543" height="0.895" rx="0.448" transform="translate(74.494 88.245)" fill="#e0e0e0"/>
  <rect id="Rectangle_72" data-name="Rectangle 72" width="48.061" height="0.895" rx="0.448" transform="translate(61.976 97.982)" fill="#e0e0e0"/>
  <rect id="Rectangle_73" data-name="Rectangle 73" width="48.061" height="0.895" rx="0.448" transform="translate(61.976 100.665)" fill="#e0e0e0"/>
  <rect id="Rectangle_74" data-name="Rectangle 74" width="48.061" height="0.895" rx="0.448" transform="translate(61.976 104.241)" fill="#e0e0e0"/>
  <rect id="Rectangle_75" data-name="Rectangle 75" width="27.719" height="0.895" rx="0.448" transform="translate(61.976 106.924)" fill="#e0e0e0"/>
  <rect id="Rectangle_76" data-name="Rectangle 76" width="48.061" height="0.895" rx="0.448" transform="translate(61.976 110.491)" fill="#e0e0e0"/>
  <rect id="Rectangle_77" data-name="Rectangle 77" width="48.061" height="0.895" rx="0.448" transform="translate(61.976 113.174)" fill="#e0e0e0"/>
  <rect id="Rectangle_78" data-name="Rectangle 78" width="48.061" height="0.895" rx="0.448" transform="translate(61.976 116.749)" fill="#e0e0e0"/>
  <rect id="Rectangle_79" data-name="Rectangle 79" width="27.719" height="0.895" rx="0.448" transform="translate(61.976 119.433)" fill="#e0e0e0"/>
  <g id="Group_27" data-name="Group 27" transform="translate(66.31 88.699)" opacity="0.5">
    <rect id="Rectangle_80" data-name="Rectangle 80" width="54.268" height="50.071" rx="4.5" fill="url(#linear-gradient-49)"/>
  </g>
  <rect id="Rectangle_81" data-name="Rectangle 81" width="53.016" height="48.856" rx="4.5" transform="translate(66.974 89.089)" fill="#fff"/>
  <rect id="Rectangle_82" data-name="Rectangle 82" width="8.942" height="8.047" rx="4.023" transform="translate(71.058 97.135)" fill="#6c63ff"/>
  <rect id="Rectangle_83" data-name="Rectangle 83" width="35.543" height="0.895" rx="0.448" transform="translate(82.684 97.135)" fill="#e0e0e0"/>
  <rect id="Rectangle_84" data-name="Rectangle 84" width="35.543" height="0.895" rx="0.448" transform="translate(82.684 99.816)" fill="#e0e0e0"/>
  <rect id="Rectangle_85" data-name="Rectangle 85" width="48.061" height="0.895" rx="0.448" transform="translate(70.166 109.553)" fill="#e0e0e0"/>
  <rect id="Rectangle_86" data-name="Rectangle 86" width="48.061" height="0.895" rx="0.448" transform="translate(70.166 112.236)" fill="#e0e0e0"/>
  <rect id="Rectangle_87" data-name="Rectangle 87" width="48.061" height="0.895" rx="0.448" transform="translate(70.166 115.811)" fill="#e0e0e0"/>
  <rect id="Rectangle_88" data-name="Rectangle 88" width="27.719" height="0.895" rx="0.448" transform="translate(70.166 118.495)" fill="#e0e0e0"/>
  <rect id="Rectangle_89" data-name="Rectangle 89" width="48.061" height="0.895" rx="0.448" transform="translate(70.166 122.061)" fill="#e0e0e0"/>
  <rect id="Rectangle_90" data-name="Rectangle 90" width="48.061" height="0.895" rx="0.448" transform="translate(70.166 124.744)" fill="#e0e0e0"/>
  <rect id="Rectangle_91" data-name="Rectangle 91" width="48.061" height="0.895" rx="0.448" transform="translate(70.166 128.32)" fill="#e0e0e0"/>
  <rect id="Rectangle_92" data-name="Rectangle 92" width="27.719" height="0.895" rx="0.448" transform="translate(70.166 131.003)" fill="#e0e0e0"/>
  <g id="Group_28" data-name="Group 28" transform="translate(97.869 95.18)" opacity="0.5">
    <rect id="Rectangle_93" data-name="Rectangle 93" width="47.022" height="55.245" fill="url(#linear-gradient-21)"/>
  </g>
  <rect id="Rectangle_94" data-name="Rectangle 94" width="44.576" height="53.135" transform="translate(99.316 96.069)" fill="#fff"/>
  <g id="Group_29" data-name="Group 29" transform="translate(115.775 103.181)" opacity="0.5">
    <path id="Path_54" data-name="Path 54" d="M621.387,407.867V406.53h-4.858v1.337h-3.4v6.557h11.656v-6.557Zm-4.264-.85h3.655v.85h-3.655Z" transform="translate(-613.13 -406.53)" fill="url(#linear-gradient-49)"/>
  </g>
  <rect id="Rectangle_95" data-name="Rectangle 95" width="10.672" height="6.003" transform="translate(116.268 104.74)" fill="#6c63ff"/>
  <path id="Path_55" data-name="Path 55" d="M391.97,339.88v1.556h.554v-1.112h3.335v1.112h.557V339.88Z" transform="translate(-272.589 -236.364)" fill="#6c63ff"/>
  <rect id="Rectangle_96" data-name="Rectangle 96" width="31.346" height="1.334" transform="translate(105.986 119.381)" fill="#e0e0e0"/>
  <rect id="Rectangle_97" data-name="Rectangle 97" width="31.346" height="1.334" transform="translate(105.986 128.162)" fill="#e0e0e0"/>
  <rect id="Rectangle_98" data-name="Rectangle 98" width="31.346" height="1.334" transform="translate(105.986 130.498)" fill="#e0e0e0"/>
  <rect id="Rectangle_99" data-name="Rectangle 99" width="13.227" height="1.334" transform="translate(105.986 125.829)" fill="#e0e0e0"/>
  <rect id="Rectangle_100" data-name="Rectangle 100" width="9.892" height="1.334" transform="translate(127.44 125.829)" fill="#3ad29f" opacity="0.6"/>
  <rect id="Rectangle_101" data-name="Rectangle 101" width="9.892" height="1.334" transform="translate(116.99 135.943)" fill="#6c63ff"/>
  <path id="Path_56" data-name="Path 56" d="M128.83,363.36V464.8l73.111,18.758.987-100.674Z" transform="translate(-89.593 -252.693)" fill="#348fd9"/>
  <path id="Path_57" data-name="Path 57" d="M441.994,464.418,368.88,483.557V382.883l73.114-19.523Z" transform="translate(-256.531 -252.693)" fill="#348fd9"/>
  <path id="Path_58" data-name="Path 58" d="M441.994,464.418,368.88,483.557V382.883l73.114-19.523Z" transform="translate(-256.531 -252.693)" opacity="0.07"/>
  <path id="Path_59" data-name="Path 59" d="M513.42,566.211v33.3l29.092-8.037v-33.3Z" transform="translate(-357.049 -388.17)" opacity="0.07"/>
  <rect id="Rectangle_102" data-name="Rectangle 102" width="21.563" height="20.717" transform="translate(147.2 102.206)" fill="url(#linear-gradient-21)"/>
  <rect id="Rectangle_103" data-name="Rectangle 103" width="20.887" height="19.788" transform="translate(147.538 102.712)" fill="#f5f5f5"/>
  <g id="Group_30" data-name="Group 30" transform="translate(153.55 105.152)" opacity="0.5">
    <path id="Path_60" data-name="Path 60" d="M743.44,414.029V413h-3.694v1.017H737.16v4.989h8.866v-4.977Zm-3.231-.646h2.772v.646h-2.772Z" transform="translate(-737.16 -413)" fill="url(#linear-gradient-86)"/>
  </g>
  <rect id="Rectangle_104" data-name="Rectangle 104" width="8.117" height="4.565" transform="translate(153.922 106.349)" fill="#6c63ff" opacity="0.6"/>
  <path id="Path_61" data-name="Path 61" d="M513.16,346.13v1.185h.423v-.847h2.537v.847h.42V346.13Z" transform="translate(-356.869 -240.71)" fill="#6c63ff" opacity="0.6"/>
  <g id="Group_31" data-name="Group 31" transform="translate(154.388 114.468)" opacity="0.6">
    <rect id="Rectangle_105" data-name="Rectangle 105" width="7.526" height="1.014" fill="#6c63ff"/>
  </g>
  <rect id="Rectangle_106" data-name="Rectangle 106" width="12.853" height="1.014" transform="translate(151.555 116.329)" fill="#bdbdbd"/>
  <rect id="Rectangle_107" data-name="Rectangle 107" width="21.563" height="20.717" transform="translate(126.529)" fill="url(#linear-gradient-21)"/>
  <rect id="Rectangle_108" data-name="Rectangle 108" width="20.887" height="19.788" transform="translate(126.867 0.509)" fill="#f5f5f5"/>
  <g id="Group_32" data-name="Group 32" transform="translate(132.879 2.96)" opacity="0.5">
    <path id="Path_62" data-name="Path 62" d="M675.57,78.484V77.47h-3.694v1.014H669.29v4.989h8.866V78.484Zm-3.231-.646h2.772v.646h-2.772Z" transform="translate(-669.29 -77.47)" fill="url(#linear-gradient-88)"/>
  </g>
  <rect id="Rectangle_109" data-name="Rectangle 109" width="8.117" height="4.565" transform="translate(133.251 4.142)" fill="#6c63ff" opacity="0.6"/>
  <path id="Path_63" data-name="Path 63" d="M445.29,10.55v1.185h.423v-.847h2.537v.847h.42V10.55Z" transform="translate(-309.67 -7.337)" fill="#6c63ff" opacity="0.6"/>
  <g id="Group_33" data-name="Group 33" transform="translate(133.717 12.262)" opacity="0.6">
    <rect id="Rectangle_110" data-name="Rectangle 110" width="7.526" height="1.014" fill="#6c63ff"/>
  </g>
  <rect id="Rectangle_111" data-name="Rectangle 111" width="12.853" height="1.014" transform="translate(130.884 14.123)" fill="#bdbdbd"/>
  <g id="Group_34" data-name="Group 34" transform="translate(96.082 38.875)" opacity="0.5">
    <rect id="Rectangle_112" data-name="Rectangle 112" width="27.938" height="22.949" fill="url(#linear-gradient-49)"/>
  </g>
  <rect id="Rectangle_113" data-name="Rectangle 113" width="27.234" height="22.133" transform="translate(96.408 39.31)" fill="#f2f2f2"/>
  <rect id="Rectangle_114" data-name="Rectangle 114" width="27.234" height="4.937" transform="translate(96.408 39.31)" fill="#6c63ff"/>
  <rect id="Rectangle_115" data-name="Rectangle 115" width="27.234" height="4.937" transform="translate(96.408 39.31)" opacity="0.1"/>
  <rect id="Rectangle_116" data-name="Rectangle 116" width="22.894" height="2.875" transform="translate(98.579 46.038)" fill="#e0e0e0"/>
  <rect id="Rectangle_117" data-name="Rectangle 117" width="16.709" height="0.978" transform="translate(98.579 51.082)" fill="#e0e0e0"/>
  <rect id="Rectangle_118" data-name="Rectangle 118" width="10.849" height="0.978" transform="translate(98.579 52.763)" fill="#e0e0e0"/>
  <rect id="Rectangle_119" data-name="Rectangle 119" width="14.321" height="0.978" transform="translate(98.579 54.444)" fill="#e0e0e0"/>
  <rect id="Rectangle_120" data-name="Rectangle 120" width="16.709" height="0.978" transform="translate(98.579 56.129)" fill="#e0e0e0"/>
  <rect id="Rectangle_121" data-name="Rectangle 121" width="5.589" height="0.978" transform="translate(98.579 57.81)" fill="#e0e0e0"/>
  <g id="Group_35" data-name="Group 35" transform="translate(137.155 56.107)" opacity="0.5">
    <rect id="Rectangle_122" data-name="Rectangle 122" width="34.629" height="28.443" fill="url(#linear-gradient-21)"/>
  </g>
  <rect id="Rectangle_123" data-name="Rectangle 123" width="33.755" height="27.435" transform="translate(137.561 58.643)" fill="#fff"/>
  <rect id="Rectangle_124" data-name="Rectangle 124" width="33.755" height="6.119" transform="translate(137.561 56.643)" fill="#6c63ff"/>
  <rect id="Rectangle_125" data-name="Rectangle 125" width="28.376" height="3.563" transform="translate(140.25 64.982)" fill="#f5f5f5"/>
  <rect id="Rectangle_126" data-name="Rectangle 126" width="20.711" height="1.209" transform="translate(140.25 71.235)" fill="#e0e0e0"/>
  <rect id="Rectangle_127" data-name="Rectangle 127" width="13.45" height="1.209" transform="translate(140.25 73.321)" fill="#e0e0e0"/>
  <rect id="Rectangle_128" data-name="Rectangle 128" width="17.75" height="1.209" transform="translate(140.25 75.405)" fill="#e0e0e0"/>
  <rect id="Rectangle_129" data-name="Rectangle 129" width="20.711" height="1.209" transform="translate(140.25 77.491)" fill="#e0e0e0"/>
  <rect id="Rectangle_130" data-name="Rectangle 130" width="6.926" height="1.209" transform="translate(140.25 79.574)" fill="#e0e0e0"/>
  <rect id="Rectangle_131" data-name="Rectangle 131" width="8.068" height="1.075" transform="translate(141.73 66.191)" fill="#69f0ae"/>
  <path id="Path_64" data-name="Path 64" d="M125.69,419.055l40.958,10.334,32.921-26.8V386.135L126.454,367.76Z" transform="translate(-87.409 -255.753)" opacity="0.1"/>
  <path id="Path_65" data-name="Path 65" d="M442.139,419.055l-40.958,10.334-32.921-26.8V386.135l73.114-18.375Z" transform="translate(-256.1 -255.753)" opacity="0.1"/>
  <path id="Path_66" data-name="Path 66" d="M43.173,363.36l-37.513,31,73.111,18.374,37.513-29.857Z" transform="translate(-3.936 -252.693)" fill="#348fd9"/>
  <path id="Path_67" data-name="Path 67" d="M441.994,363.36l37.9,31-72.73,18.374L368.88,382.883Z" transform="translate(-256.531 -252.693)" fill="#348fd9"/>
  <path id="Path_68" data-name="Path 68" d="M441.994,363.36l37.9,31-72.73,18.374L368.88,382.883Z" transform="translate(-256.531 -252.693)" opacity="0.07"/>
</svg>
